0
SECTION
2
HEADER
9
$INSUNITS
70
4
9
$ACADVER
1
AC1014
9
$HANDSEED
5
FFFF
0
ENDSEC
0
SECTION
2
TABLES
0
TABLE
2
VPORT
5
8
100
AcDbSymbolTable
0
ENDTAB
0
TABLE
2
LTYPE
5
5
100
AcDbSymbolTable
0
LTYPE
5
14
100
AcDbSymbolTableRecord
100
AcDbLinetypeTableRecord
2
BYBLOCK
70
0
0
LTYPE
5
15
100
AcDbSymbolTableRecord
100
AcDbLinetypeTableRecord
2
BYLAYER
70
0
0
ENDTAB
0
TABLE
2
LAYER
5
2
100
AcDbSymbolTable
70
2
0
LAYER
5
50
100
AcDbSymbolTableRecord
100
AcDbLayerTableRecord
2
0
70
0
6
CONTINUOUS
0
ENDTAB
0
TABLE
2
STYLE
5
3
100
AcDbSymbolTable
70
1
0
STYLE
5
11
100
AcDbSymbolTableRecord
100
AcDbTextStyleTableRecord
2
STANDARD
70
0
0
ENDTAB
0
TABLE
2
VIEW
5
6
100
AcDbSymbolTable
70
0
0
ENDTAB
0
TABLE
2
UCS
5
7
100
AcDbSymbolTable
70
0
0
ENDTAB
0
TABLE
2
APPID
5
9
100
AcDbSymbolTable
70
2
0
APPID
5
12
100
AcDbSymbolTableRecord
100
AcDbRegAppTableRecord
2
ACAD
70
0
0
ENDTAB
0
TABLE
2
DIMSTYLE
5
A
100
AcDbSymbolTable
70
1
0
ENDTAB
0
TABLE
2
BLOCK_RECORD
5
1
100
AcDbSymbolTable
70
1
0
BLOCK_RECORD
5
1F
100
AcDbSymbolTableRecord
100
AcDbBlockTableRecord
2
*MODEL_SPACE
0
BLOCK_RECORD
5
1B
100
AcDbSymbolTableRecord
100
AcDbBlockTableRecord
2
*PAPER_SPACE
0
ENDTAB
0
ENDSEC
0
SECTION
2
BLOCKS
0
BLOCK
5
20
100
AcDbEntity
100
AcDbBlockBegin
2
*MODEL_SPACE
0
ENDBLK
5
21
100
AcDbEntity
100
AcDbBlockEnd
0
BLOCK
5
1C
100
AcDbEntity
100
AcDbBlockBegin
2
*PAPER_SPACE
0
ENDBLK
5
1D
100
AcDbEntity
100
AcDbBlockEnd
0
ENDSEC
0
SECTION
2
ENTITIES
0
LWPOLYLINE
5
100
100
AcDbEntity
8
0
100
AcDbPolyline
90
12
70
1
43
0.0
10
3.2225301327194904
20
35.9149501145789
10
-0.28091522433965183
20
35.9149501145789
10
-0.28100000000002012
20
0.0044999999999895124
10
285.46899999999999
20
0.0044999999999895124
10
285.46899999999999
20
35.9149501145789
10
281.96438850850001
20
35.9149501145789
42
-0.99999999999999989
10
281.96438850850001
20
40.923941121744519
10
285.46899999999999
20
40.923941121744519
10
285.46899999999999
20
95.154799999999994
10
-0.28100000000000236
20
95.254499999999993
10
-0.28100000000000236
20
40.920937550465091
10
3.223911950964689
20
40.920937550465091
42
-1.0002760712000833
0
CIRCLE
5
101
100
AcDbEntity
8
0
100
AcDbCircle
10
260.29888026804701
20
67.054324402368508
30
0
40
2.5032939224999939
210
0
220
0
230
1
0
CIRCLE
5
102
100
AcDbEntity
8
0
100
AcDbCircle
10
25.140150110695316
20
67.054324402368508
30
0
40
2.503293922500001
210
0
220
0
230
1
0
LWPOLYLINE
5
103
100
AcDbEntity
8
0
100
AcDbPolyline
90
8
70
1
43
0.0
10
253.86900000000003
20
16.52949999999997
42
-0.41421356237309503
10
254.36900000000003
20
16.029499999999999
10
254.36900000000006
20
3.0294999999999916
42
-0.41421356237309503
10
253.86900000000003
20
2.5294999999999845
10
240.869
20
2.5295000000000201
42
-0.41421356237309503
10
240.36900000000003
20
3.0294999999999916
10
240.369
20
16.029499999999999
42
-0.41421356237309503
10
240.869
20
16.529500000000006
0
LWPOLYLINE
5
104
100
AcDbEntity
8
0
100
AcDbPolyline
90
8
70
1
43
0.0
10
101.46900000000001
20
73.67949999999999
10
88.468999999999994
20
73.67949999999999
42
0.41421356237309503
10
87.969000000000008
20
73.17949999999999
10
87.969000000000008
20
60.17949999999999
42
0.41421356237309503
10
88.468999999999994
20
59.679499999999983
10
101.46900000000001
20
59.679499999999983
42
0.41421356237309503
10
101.96900000000001
20
60.17949999999999
10
101.96900000000001
20
73.17949999999999
42
0.41421356237309503
0
LWPOLYLINE
5
105
100
AcDbEntity
8
0
100
AcDbPolyline
90
8
70
1
43
0.0
10
278.18149999999997
20
3.0294999999999916
42
-0.41421356237309503
10
277.68149999999997
20
2.5294999999999845
10
264.68150000000003
20
2.529499999999949
42
-0.41421356237309503
10
264.18149999999997
20
3.0294999999999916
10
264.18150000000003
20
16.029499999999999
42
-0.41421356237309503
10
264.68150000000003
20
16.529500000000006
10
277.68149999999997
20
16.529500000000041
42
-0.41421356237309503
10
278.18150000000003
20
16.029499999999999
0
LWPOLYLINE
5
106
100
AcDbEntity
8
0
100
AcDbPolyline
90
8
70
1
43
0.0
10
63.369
20
59.679499999999983
10
50.369
20
59.67949999999999
42
-0.41421356237309503
10
49.869
20
60.17949999999999
10
49.869000000000014
20
73.17949999999999
42
-0.41421356237309503
10
50.369
20
73.67949999999999
10
63.369
20
73.67949999999999
42
-0.41421356237309503
10
63.869
20
73.17949999999999
10
63.869000000000007
20
60.17949999999999
42
-0.41421356237309503
0
LWPOLYLINE
5
107
100
AcDbEntity
8
0
100
AcDbPolyline
90
8
70
1
43
0.0
10
30.81900000000001
20
73.17949999999999
42
-0.41421356237309503
10
31.318999999999999
20
73.67949999999999
10
44.318999999999996
20
73.679500000000004
42
-0.41421356237309503
10
44.819000000000003
20
73.17949999999999
10
44.818999999999996
20
60.17949999999999
42
-0.41421356237309503
10
44.318999999999996
20
59.67949999999999
10
31.318999999999999
20
59.67949999999999
42
-0.41421356237309503
10
30.819000000000003
20
60.17949999999999
0
LWPOLYLINE
5
108
100
AcDbEntity
8
0
100
AcDbPolyline
90
8
70
1
43
0.0
10
69.419000000000011
20
59.67949999999999
42
-0.41421356237309503
10
68.919000000000011
20
60.17949999999999
10
68.919000000000011
20
73.17949999999999
42
-0.41421356237309503
10
69.419000000000011
20
73.67949999999999
10
82.419000000000011
20
73.679500000000004
42
-0.41421356237309503
10
82.919000000000011
20
73.17949999999999
10
82.919000000000011
20
60.17949999999999
42
-0.41421356237309503
10
82.419000000000011
20
59.67949999999999
0
LWPOLYLINE
5
109
100
AcDbEntity
8
0
100
AcDbPolyline
90
8
70
1
43
0.0
10
120.51900000000001
20
73.67949999999999
10
107.51900000000001
20
73.67949999999999
42
0.41421356237309503
10
107.01900000000001
20
73.17949999999999
10
107.01900000000001
20
60.17949999999999
42
0.41421356237309503
10
107.51900000000001
20
59.67949999999999
10
120.51900000000001
20
59.67949999999999
42
0.41421356237309503
10
121.01900000000001
20
60.17949999999999
10
121.01900000000001
20
73.17949999999999
42
0.41421356237309503
0
LWPOLYLINE
5
110
100
AcDbEntity
8
0
100
AcDbPolyline
90
8
70
1
43
0.0
10
20.506500000000003
20
59.679499999999983
10
7.5064999999999982
20
59.67949999999999
42
-0.41421356237309503
10
7.0064999999999973
20
60.17949999999999
10
7.0065000000000088
20
73.17949999999999
42
-0.41421356237309503
10
7.5064999999999982
20
73.67949999999999
10
20.506500000000003
20
73.67949999999999
42
-0.41421356237309503
10
21.006499999999999
20
73.17949999999999
10
21.00650000000001
20
60.17949999999999
42
-0.41421356237309503
0
LWPOLYLINE
5
111
100
AcDbEntity
8
0
100
AcDbPolyline
90
8
70
1
43
0.0
10
164.16900000000004
20
73.17949999999999
42
-0.41421356237309503
10
164.66900000000004
20
73.67949999999999
10
177.66899999999998
20
73.679499999999962
42
-0.41421356237309503
10
178.16899999999998
20
73.17949999999999
10
178.16900000000001
20
60.17949999999999
42
-0.41421356237309503
10
177.66899999999998
20
59.679499999999983
10
164.66900000000004
20
59.679499999999948
42
-0.41421356237309503
10
164.16899999999998
20
60.17949999999999
0
LWPOLYLINE
5
112
100
AcDbEntity
8
0
100
AcDbPolyline
90
8
70
1
43
0.0
10
183.21899999999999
20
60.17949999999999
10
183.21900000000005
20
73.17949999999999
42
-0.41421356237309503
10
183.71900000000005
20
73.67949999999999
10
196.71899999999999
20
73.679500000000047
42
-0.41421356237309503
10
197.21900000000005
20
73.17949999999999
10
197.21900000000002
20
60.17949999999999
42
-0.41421356237309503
10
196.71899999999999
20
59.67949999999999
10
183.71900000000005
20
59.679499999999948
42
-0.41421356237309503
0
LWPOLYLINE
5
113
100
AcDbEntity
8
0
100
AcDbPolyline
90
8
70
1
43
0.0
10
277.68149999999997
20
59.679499999999983
10
264.68150000000003
20
59.679499999999948
42
-0.41421356237309503
10
264.18149999999997
20
60.17949999999999
10
264.18150000000003
20
73.17949999999999
42
-0.41421356237309503
10
264.68150000000003
20
73.67949999999999
10
277.68149999999997
20
73.679500000000047
42
-0.41421356237309503
10
278.18150000000003
20
73.17949999999999
10
278.18149999999997
20
60.17949999999999
42
-0.41421356237309503
0
LWPOLYLINE
5
114
100
AcDbEntity
8
0
100
AcDbPolyline
90
8
70
1
43
0.0
10
140.06899999999999
20
60.17949999999999
10
140.06899999999999
20
73.17949999999999
42
0.41421356237309503
10
139.56899999999999
20
73.67949999999999
10
126.569
20
73.67949999999999
42
0.41421356237309503
10
126.06899999999999
20
73.17949999999999
10
126.06899999999999
20
60.17949999999999
42
0.41421356237309503
10
126.569
20
59.67949999999999
10
139.56899999999999
20
59.67949999999999
42
0.41421356237309503
0
LWPOLYLINE
5
115
100
AcDbEntity
8
0
100
AcDbPolyline
90
8
70
1
43
0.0
10
158.619
20
73.679500000000004
42
-0.41421356237309503
10
159.119
20
73.17949999999999
10
159.119
20
60.17949999999999
42
-0.41421356237309503
10
158.619
20
59.67949999999999
10
145.61900000000003
20
59.679499999999983
42
-0.41421356237309503
10
145.119
20
60.17949999999999
10
145.11900000000003
20
73.17949999999999
42
-0.41421356237309503
10
145.61900000000003
20
73.67949999999999
0
LWPOLYLINE
5
116
100
AcDbEntity
8
0
100
AcDbPolyline
90
8
70
1
43
0.0
10
240.869
20
59.679500000000019
42
-0.41421356237309503
10
240.36900000000003
20
60.17949999999999
10
240.36900000000003
20
73.17949999999999
42
-0.41421356237309503
10
240.869
20
73.67949999999999
10
253.86900000000003
20
73.679499999999962
42
-0.41421356237309503
10
254.36900000000003
20
73.17949999999999
10
254.36900000000006
20
60.17949999999999
42
-0.41421356237309503
10
253.86900000000003
20
59.67949999999999
0
LWPOLYLINE
5
117
100
AcDbEntity
8
0
100
AcDbPolyline
90
8
70
1
43
0.0
10
216.26900000000001
20
60.17949999999999
10
216.26900000000001
20
73.17949999999999
42
0.41421356237309503
10
215.76900000000001
20
73.67949999999999
10
202.76900000000006
20
73.67949999999999
42
0.41421356237309503
10
202.26900000000001
20
73.17949999999999
10
202.26900000000001
20
60.17949999999999
42
0.41421356237309503
10
202.76900000000006
20
59.67949999999999
10
215.76900000000001
20
59.679499999999983
42
0.41421356237309503
0
LWPOLYLINE
5
118
100
AcDbEntity
8
0
100
AcDbPolyline
90
8
70
1
43
0.0
10
234.81900000000002
20
73.67949999999999
10
221.81899999999999
20
73.67949999999999
42
0.41421356237309503
10
221.31900000000002
20
73.17949999999999
10
221.31900000000002
20
60.17949999999999
42
0.41421356237309503
10
221.81899999999999
20
59.67949999999999
10
234.81900000000002
20
59.67949999999999
42
0.41421356237309503
10
235.31900000000002
20
60.17949999999999
10
235.31900000000002
20
73.17949999999999
42
0.41421356237309503
0
LWPOLYLINE
5
119
100
AcDbEntity
8
0
100
AcDbPolyline
90
8
70
1
43
0.0
10
282.44400000000007
20
35.579499999999967
42
-0.41421356237309503
10
282.94400000000002
20
35.079499999999996
10
282.94400000000007
20
22.079500000000003
42
-0.41421356237309503
10
282.44400000000007
20
21.579499999999996
10
269.44400000000002
20
21.579500000000031
42
-0.41421356237309503
10
268.94400000000007
20
22.079500000000003
10
268.94400000000002
20
35.079499999999996
42
-0.41421356237309503
10
269.44400000000002
20
35.579499999999989
0
LWPOLYLINE
5
120
100
AcDbEntity
8
0
100
AcDbPolyline
90
8
70
1
43
0.0
10
20.506500000000003
20
2.5295000000000023
10
7.5064999999999982
20
2.5294999999999912
42
-0.41421356237309503
10
7.0064999999999973
20
3.0294999999999916
10
7.0064999999999911
20
16.029499999999999
42
-0.41421356237309503
10
7.5064999999999982
20
16.529500000000006
10
20.506500000000003
20
16.529499999999999
42
-0.41421356237309503
10
21.006499999999999
20
16.029499999999999
10
21.006499999999988
20
3.0294999999999916
42
-0.41421356237309503
0
LWPOLYLINE
5
121
100
AcDbEntity
8
0
100
AcDbPolyline
90
8
70
1
43
0.0
10
55.131500000000003
20
2.5294999999999934
42
-0.41421356237309503
10
54.631500000000003
20
3.0294999999999916
10
54.631499999999996
20
16.029499999999999
42
-0.41421356237309503
10
55.131500000000003
20
16.529500000000006
10
68.131499999999988
20
16.529499999999999
42
-0.41421356237309503
10
68.631499999999988
20
16.029499999999999
10
68.631500000000003
20
3.0294999999999916
42
-0.41421356237309503
10
68.131499999999988
20
2.5294999999999845
0
LWPOLYLINE
5
122
100
AcDbEntity
8
0
100
AcDbPolyline
90
8
70
1
43
0.0
10
44.819000000000003
20
3.0294999999999916
42
-0.41421356237309503
10
44.318999999999996
20
2.5294999999999845
10
31.318999999999999
20
2.5294999999999934
42
-0.41421356237309503
10
30.819000000000003
20
3.0294999999999916
10
30.818999999999992
20
16.029499999999999
42
-0.41421356237309503
10
31.318999999999999
20
16.529500000000006
10
44.318999999999996
20
16.529499999999999
42
-0.41421356237309503
10
44.818999999999996
20
16.029499999999999
0
LWPOLYLINE
5
123
100
AcDbEntity
8
0
100
AcDbPolyline
90
8
70
1
43
0.0
10
149.09399999999999
20
16.529500000000006
42
-0.41421356237309503
10
149.59399999999999
20
16.029499999999999
10
149.59399999999999
20
3.0294999999999916
42
-0.41421356237309503
10
149.09399999999999
20
2.5295000000000023
10
136.09399999999999
20
2.5294999999999845
42
-0.41421356237309503
10
135.59399999999999
20
3.0294999999999916
10
135.59399999999999
20
16.029499999999999
42
-0.41421356237309503
10
136.09399999999999
20
16.529500000000006
0
LWPOLYLINE
5
124
100
AcDbEntity
8
0
100
AcDbPolyline
90
8
70
1
43
0.0
10
216.55650000000003
20
3.0294999999999916
10
216.55649999999997
20
16.029499999999999
42
-0.41421356237309503
10
217.05649999999997
20
16.529500000000006
10
230.05650000000003
20
16.52949999999997
42
-0.41421356237309503
10
230.5565
20
16.029499999999999
10
230.55650000000003
20
3.0294999999999916
42
-0.41421356237309503
10
230.05650000000003
20
2.5294999999999845
10
217.05649999999997
20
2.5295000000000201
42
-0.41421356237309503
0
LWPOLYLINE
5
125
100
AcDbEntity
8
0
100
AcDbPolyline
90
8
70
1
43
0.0
10
202.61900000000003
20
1.5294999999999881
10
196.86900000000003
20
1.5295000000000236
42
-0.41421356237309503
10
196.36900000000003
20
2.0294999999999952
10
196.369
20
15.029500000000002
42
-0.41421356237309503
10
196.86900000000003
20
15.529500000000009
10
202.61900000000003
20
15.529499999999974
42
-0.41421356237309503
10
203.11900000000003
20
15.029500000000002
10
203.11900000000006
20
2.0294999999999952
42
-0.41421356237309503
0
LWPOLYLINE
5
126
100
AcDbEntity
8
0
100
AcDbPolyline
90
8
70
1
43
0.0
10
82.068999999999988
20
2.0294999999999952
10
82.069000000000017
20
15.029500000000002
42
-0.41421356237309503
10
82.569000000000003
20
15.529499999999992
10
88.318999999999988
20
15.529500000000009
42
-0.41421356237309503
10
88.819000000000003
20
15.029500000000002
10
88.819000000000003
20
2.0294999999999952
42
-0.41421356237309503
10
88.318999999999988
20
1.5294999999999881
10
82.569000000000003
20
1.5294999999999881
42
-0.41421356237309503
0
LWPOLYLINE
5
127
100
AcDbEntity
8
0
100
AcDbPolyline
90
8
70
1
43
0.0
10
34.793999999999997
20
78.729500000000002
10
21.793999999999997
20
78.729500000000002
42
-0.41421356237309503
10
21.294
20
79.229499999999987
10
21.29399999999999
20
92.229499999999987
42
-0.41421356237309503
10
21.793999999999997
20
92.729500000000002
10
34.793999999999997
20
92.729500000000002
42
-0.41421356237309503
10
35.294000000000004
20
92.229499999999987
10
35.293999999999997
20
79.229499999999987
42
-0.41421356237309503
0
LWPOLYLINE
5
128
100
AcDbEntity
8
0
100
AcDbPolyline
90
8
70
1
43
0.0
10
2.2439999999999904
20
92.229499999999987
42
-0.41421356237309503
10
2.7439999999999976
20
92.729500000000002
10
15.743999999999998
20
92.729500000000002
42
-0.41421356237309503
10
16.244
20
92.229499999999987
10
16.243999999999996
20
79.229499999999987
42
-0.41421356237309503
10
15.743999999999998
20
78.729500000000002
10
2.7439999999999976
20
78.729500000000002
42
-0.41421356237309503
10
2.2439999999999976
20
79.229499999999987
0
LWPOLYLINE
5
129
100
AcDbEntity
8
0
100
AcDbPolyline
90
8
70
1
43
0.0
10
59.393999999999998
20
79.229499999999987
10
59.393999999999991
20
92.229499999999987
42
-0.41421356237309503
10
59.893999999999998
20
92.729500000000002
10
72.893999999999991
20
92.729499999999973
42
-0.41421356237309503
10
73.393999999999991
20
92.229499999999987
10
73.393999999999991
20
79.229499999999987
42
-0.41421356237309503
10
72.893999999999991
20
78.729500000000002
10
59.893999999999998
20
78.729500000000002
42
-0.41421356237309503
0
LWPOLYLINE
5
130
100
AcDbEntity
8
0
100
AcDbPolyline
90
8
70
1
43
0.0
10
53.844000000000001
20
78.729500000000002
10
40.843999999999994
20
78.729500000000002
42
-0.41421356237309503
10
40.343999999999994
20
79.229499999999987
10
40.343999999999987
20
92.229499999999987
42
-0.41421356237309503
10
40.843999999999994
20
92.729500000000002
10
53.844000000000001
20
92.729499999999973
42
-0.41421356237309503
10
54.344000000000001
20
92.229499999999987
10
54.344000000000001
20
79.229499999999987
42
-0.41421356237309503
0
LWPOLYLINE
5
131
100
AcDbEntity
8
0
100
AcDbPolyline
90
8
70
1
43
0.0
10
187.19400000000002
20
92.729500000000002
10
174.19400000000002
20
92.729500000000002
42
0.41421356237309503
10
173.69399999999999
20
92.229499999999987
10
173.69399999999999
20
79.229499999999987
42
0.41421356237309503
10
174.19400000000002
20
78.729500000000002
10
187.19400000000002
20
78.729500000000002
42
0.41421356237309503
10
187.69399999999996
20
79.229499999999987
10
187.69399999999996
20
92.229499999999987
42
0.41421356237309503
0
LWPOLYLINE
5
132
100
AcDbEntity
8
0
100
AcDbPolyline
90
8
70
1
43
0.0
10
211.79400000000001
20
79.229499999999987
10
211.79399999999998
20
92.229499999999987
42
-0.41421356237309503
10
212.29399999999998
20
92.729500000000002
10
225.29400000000004
20
92.729499999999959
42
-0.41421356237309503
10
225.79399999999998
20
92.229499999999987
10
225.79400000000004
20
79.229499999999987
42
-0.41421356237309503
10
225.29400000000004
20
78.729500000000002
10
212.29399999999998
20
78.729500000000016
42
-0.41421356237309503
0
LWPOLYLINE
5
133
100
AcDbEntity
8
0
100
AcDbPolyline
90
8
70
1
43
0.0
10
116.54400000000001
20
79.229499999999987
10
116.54400000000001
20
92.229499999999987
42
-0.41421356237309503
10
117.04400000000001
20
92.729500000000002
10
130.04399999999998
20
92.729500000000002
42
-0.41421356237309503
10
130.54399999999998
20
92.229499999999987
10
130.54399999999998
20
79.229499999999987
42
-0.41421356237309503
10
130.04399999999998
20
78.729500000000002
10
117.04400000000001
20
78.729499999999987
42
-0.41421356237309503
0
LWPOLYLINE
5
134
100
AcDbEntity
8
0
100
AcDbPolyline
90
8
70
1
43
0.0
10
149.09399999999999
20
92.729500000000002
10
136.09399999999999
20
92.729500000000002
42
0.41421356237309503
10
135.59399999999999
20
92.229499999999987
10
135.59399999999999
20
79.229499999999987
42
0.41421356237309503
10
136.09399999999999
20
78.729500000000002
10
149.09399999999999
20
78.729500000000002
42
0.41421356237309503
10
149.59399999999999
20
79.229499999999987
10
149.59399999999999
20
92.229499999999987
42
0.41421356237309503
0
LWPOLYLINE
5
135
100
AcDbEntity
8
0
100
AcDbPolyline
90
8
70
1
43
0.0
10
168.14400000000001
20
78.729500000000002
10
155.14400000000001
20
78.729499999999987
42
-0.41421356237309503
10
154.64400000000001
20
79.229499999999987
10
154.64400000000001
20
92.229499999999987
42
-0.41421356237309503
10
155.14400000000001
20
92.729500000000002
10
168.14400000000001
20
92.72950000000003
42
-0.41421356237309503
10
168.64400000000003
20
92.229499999999987
10
168.64400000000001
20
79.229499999999987
42
-0.41421356237309503
0
LWPOLYLINE
5
136
100
AcDbEntity
8
0
100
AcDbPolyline
90
8
70
1
43
0.0
10
78.443999999999988
20
92.229499999999987
42
-0.41421356237309503
10
78.943999999999988
20
92.729500000000002
10
91.944000000000003
20
92.729500000000002
42
-0.41421356237309503
10
92.444000000000003
20
92.229499999999987
10
92.443999999999988
20
79.229499999999987
42
-0.41421356237309503
10
91.944000000000003
20
78.729500000000002
10
78.943999999999988
20
78.729500000000002
42
-0.41421356237309503
10
78.443999999999988
20
79.229499999999987
0
LWPOLYLINE
5
137
100
AcDbEntity
8
0
100
AcDbPolyline
90
8
70
1
43
0.0
10
97.494000000000014
20
79.229499999999987
10
97.494
20
92.229499999999987
42
-0.41421356237309503
10
97.994
20
92.729500000000002
10
110.99400000000001
20
92.729500000000002
42
-0.41421356237309503
10
111.49400000000001
20
92.229499999999987
10
111.494
20
79.229499999999987
42
-0.41421356237309503
10
110.99400000000001
20
78.729500000000002
10
97.994
20
78.729500000000002
42
-0.41421356237309503
0
LWPOLYLINE
5
138
100
AcDbEntity
8
0
100
AcDbPolyline
90
8
70
1
43
0.0
10
206.24400000000003
20
78.729500000000002
10
193.24400000000003
20
78.729499999999945
42
-0.41421356237309503
10
192.744
20
79.229499999999987
10
192.74400000000003
20
92.229499999999987
42
-0.41421356237309503
10
193.24400000000003
20
92.729500000000002
10
206.24400000000003
20
92.72950000000003
42
-0.41421356237309503
10
206.74400000000006
20
92.229499999999987
10
206.74400000000003
20
79.229499999999987
42
-0.41421356237309503
0
LWPOLYLINE
5
139
100
AcDbEntity
8
0
100
AcDbPolyline
90
8
70
1
43
0.0
10
249.89400000000003
20
79.229499999999987
10
249.89400000000001
20
92.229499999999987
42
-0.41421356237309503
10
250.39400000000001
20
92.729500000000002
10
263.39400000000006
20
92.729499999999959
42
-0.41421356237309503
10
263.89400000000001
20
92.229499999999987
10
263.89400000000006
20
79.229499999999987
42
-0.41421356237309503
10
263.39400000000006
20
78.729500000000002
10
250.39400000000001
20
78.729500000000016
42
-0.41421356237309503
0
LWPOLYLINE
5
140
100
AcDbEntity
8
0
100
AcDbPolyline
90
8
70
1
43
0.0
10
268.94400000000007
20
79.229499999999987
10
268.94400000000002
20
92.229499999999987
42
-0.41421356237309503
10
269.44400000000002
20
92.729500000000002
10
282.44400000000007
20
92.729499999999959
42
-0.41421356237309503
10
282.94400000000002
20
92.229499999999987
10
282.94400000000007
20
79.229499999999987
42
-0.41421356237309503
10
282.44400000000007
20
78.729500000000002
10
269.44400000000002
20
78.729500000000016
42
-0.41421356237309503
0
LWPOLYLINE
5
141
100
AcDbEntity
8
0
100
AcDbPolyline
90
8
70
1
43
0.0
10
231.34399999999999
20
78.729500000000016
42
-0.41421356237309503
10
230.84400000000002
20
79.229499999999987
10
230.84399999999999
20
92.229499999999987
42
-0.41421356237309503
10
231.34399999999999
20
92.729500000000002
10
244.34400000000005
20
92.729499999999959
42
-0.41421356237309503
10
244.84399999999999
20
92.229499999999987
10
244.84400000000005
20
79.229499999999987
42
-0.41421356237309503
10
244.34400000000005
20
78.729500000000002
0
LWPOLYLINE
5
142
100
AcDbEntity
8
0
100
AcDbPolyline
90
8
70
1
43
0.0
10
54.631500000000003
20
41.129499999999986
10
54.631500000000003
20
54.129499999999993
42
-0.41421356237309503
10
55.131500000000003
20
54.629499999999993
10
68.131499999999988
20
54.629499999999993
42
-0.41421356237309503
10
68.631499999999988
20
54.129499999999993
10
68.631499999999988
20
41.129499999999986
42
-0.41421356237309503
10
68.131499999999988
20
40.629499999999993
10
55.131500000000003
20
40.629499999999993
42
-0.41421356237309503
0
LWPOLYLINE
5
143
100
AcDbEntity
8
0
100
AcDbPolyline
90
8
70
1
43
0.0
10
87.181500000000014
20
40.629499999999993
10
74.1815
20
40.629499999999993
42
-0.41421356237309503
10
73.681500000000014
20
41.129499999999986
10
73.681500000000014
20
54.129499999999993
42
-0.41421356237309503
10
74.1815
20
54.629499999999993
10
87.181500000000014
20
54.629499999999986
42
-0.41421356237309503
10
87.6815
20
54.129499999999993
10
87.681500000000028
20
41.129499999999986
42
-0.41421356237309503
0
LWPOLYLINE
5
144
100
AcDbEntity
8
0
100
AcDbPolyline
90
8
70
1
43
0.0
10
35.581499999999991
20
41.129499999999986
10
35.581499999999998
20
54.129499999999993
42
-0.41421356237309503
10
36.081499999999998
20
54.629499999999993
10
49.081499999999998
20
54.629499999999993
42
-0.41421356237309503
10
49.581499999999998
20
54.129499999999993
10
49.581499999999998
20
41.129499999999986
42
-0.41421356237309503
10
49.081499999999998
20
40.629499999999993
10
36.081499999999998
20
40.629499999999993
42
-0.41421356237309503
0
LWPOLYLINE
5
145
100
AcDbEntity
8
0
100
AcDbPolyline
90
8
70
1
43
0.0
10
23.387749999999997
20
41.129499999999986
10
23.387749999999997
20
54.129499999999993
42
0.41421356237309503
10
22.887749999999997
20
54.629499999999993
10
9.8877499999999969
20
54.629499999999993
42
0.41421356237309503
10
9.3877499999999969
20
54.129499999999993
10
9.3877499999999969
20
41.129499999999986
42
0.41421356237309503
10
9.8877499999999969
20
40.629499999999993
10
22.887749999999997
20
40.629499999999993
42
0.41421356237309503
0
LWPOLYLINE
5
146
100
AcDbEntity
8
0
100
AcDbPolyline
90
24
70
1
43
0.0
10
144.33150000000001
20
54.6295
42
-0.41421356237309503
10
144.83150000000001
20
54.129499999999993
10
144.83150000000001
20
41.129499999999986
42
-0.41421356237309503
10
144.33150000000001
20
40.629499999999993
10
131.33150000000003
20
40.629499999999979
42
-0.41421356237309503
10
130.83150000000001
20
41.129499999999986
10
130.83149999999998
20
44.528763563768514
42
0.41421356237308982
10
130.33150000000001
20
45.028763563768507
10
126.28150000000002
20
45.028763563768507
42
0.41421356237308982
10
125.78150000000001
20
44.528763563768507
10
125.78150000000001
20
41.129499999999986
42
-0.41421356237309503
10
125.28149999999999
20
40.629499999999993
10
112.28150000000001
20
40.629499999999979
42
-0.41421356237309503
10
111.78150000000001
20
41.129499999999986
10
111.78150000000002
20
54.129499999999993
42
-0.41421356237309503
10
112.28150000000001
20
54.629499999999993
10
125.28149999999999
20
54.6295
42
-0.41421356237309503
10
125.78150000000001
20
54.129499999999993
10
125.78150000000002
20
50.72876356376851
42
0.41421356237310025
10
126.28150000000002
20
50.228763563768496
10
130.33150000000001
20
50.228763563768496
42
0.41421356237308982
10
130.83150000000001
20
50.728763563768489
10
130.83150000000003
20
54.129499999999993
42
-0.41421356237309503
10
131.33150000000003
20
54.629499999999993
0
LWPOLYLINE
5
147
100
AcDbEntity
8
0
100
AcDbPolyline
90
8
70
1
43
0.0
10
239.58150000000003
20
40.629499999999993
10
226.58150000000001
20
40.629500000000014
42
-0.41421356237309503
10
226.08150000000001
20
41.129499999999986
10
226.08149999999998
20
54.129499999999993
42
-0.41421356237309503
10
226.58150000000001
20
54.629499999999993
10
239.58150000000003
20
54.629499999999965
42
-0.41421356237309503
10
240.08150000000001
20
54.129499999999993
10
240.08150000000003
20
41.129499999999986
42
-0.41421356237309503
0
LWPOLYLINE
5
148
100
AcDbEntity
8
0
100
AcDbPolyline
90
8
70
1
43
0.0
10
149.88150000000002
20
54.129499999999993
42
-0.41421356237309503
10
150.38149999999999
20
54.629499999999993
10
163.38149999999999
20
54.629500000000036
42
-0.41421356237309503
10
163.88150000000002
20
54.129499999999993
10
163.88149999999999
20
41.129499999999986
42
-0.41421356237309503
10
163.38149999999999
20
40.629499999999993
10
150.38149999999999
20
40.629499999999979
42
-0.41421356237309503
10
149.88149999999999
20
41.129499999999986
0
LWPOLYLINE
5
149
100
AcDbEntity
8
0
100
AcDbPolyline
90
8
70
1
43
0.0
10
106.23150000000001
20
40.629499999999993
10
93.231499999999997
20
40.6295
42
-0.41421356237309503
10
92.731500000000011
20
41.129499999999986
10
92.731500000000011
20
54.129499999999993
42
-0.41421356237309503
10
93.231499999999997
20
54.629499999999993
10
106.23150000000001
20
54.6295
42
-0.41421356237309503
10
106.73150000000001
20
54.129499999999993
10
106.7315
20
41.129499999999986
42
-0.41421356237309503
0
LWPOLYLINE
5
150
100
AcDbEntity
8
0
100
AcDbPolyline
90
8
70
1
43
0.0
10
221.03150000000002
20
41.129499999999986
42
-0.41421356237309503
10
220.53150000000002
20
40.629499999999993
10
207.53149999999999
20
40.629500000000014
42
-0.41421356237309503
10
207.03149999999999
20
41.129499999999986
10
207.03149999999997
20
54.129499999999993
42
-0.41421356237309503
10
207.53149999999999
20
54.629499999999993
10
220.53150000000002
20
54.629499999999965
42
-0.41421356237309503
10
221.03149999999999
20
54.129499999999993
0
LWPOLYLINE
5
151
100
AcDbEntity
8
0
100
AcDbPolyline
90
8
70
1
43
0.0
10
201.48150000000001
20
40.629499999999993
10
188.48149999999998
20
40.629500000000014
42
-0.41421356237309503
10
187.98149999999998
20
41.129499999999986
10
187.98149999999995
20
54.129499999999993
42
-0.41421356237309503
10
188.48149999999998
20
54.629499999999993
10
201.48150000000001
20
54.629499999999965
42
-0.41421356237309503
10
201.98149999999998
20
54.129499999999993
10
201.98150000000001
20
41.129499999999986
42
-0.41421356237309503
0
LWPOLYLINE
5
152
100
AcDbEntity
8
0
100
AcDbPolyline
90
8
70
1
43
0.0
10
182.4315
20
54.629500000000036
42
-0.41421356237309503
10
182.93150000000003
20
54.129499999999993
10
182.9315
20
41.129499999999986
42
-0.41421356237309503
10
182.4315
20
40.629499999999993
10
169.43150000000003
20
40.629499999999943
42
-0.41421356237309503
10
168.93149999999997
20
41.129499999999986
10
168.93150000000003
20
54.129499999999993
42
-0.41421356237309503
10
169.43150000000003
20
54.629499999999993
0
LWPOLYLINE
5
153
100
AcDbEntity
8
0
100
AcDbPolyline
90
8
70
1
43
0.0
10
29.713250000000002
20
34.079499999999996
42
-0.41421356237309503
10
30.213250000000002
20
34.579499999999996
10
35.963250000000002
20
34.579499999999996
42
-0.41421356237309503
10
36.463250000000002
20
34.079499999999996
10
36.463250000000009
20
21.079499999999989
42
-0.41421356237309503
10
35.963250000000002
20
20.579499999999982
10
30.213250000000002
20
20.579499999999989
42
-0.41421356237309503
10
29.713250000000002
20
21.079499999999989
0
LWPOLYLINE
5
154
100
AcDbEntity
8
0
100
AcDbPolyline
90
8
70
1
43
0.0
10
257.53775000000007
20
40.629499999999943
42
-0.41421356237309503
10
257.03775000000002
20
41.129499999999986
10
257.03775000000002
20
54.129499999999993
42
-0.41421356237309503
10
257.53775000000007
20
54.629499999999993
10
270.53775000000002
20
54.629500000000036
42
-0.41421356237309503
10
271.03775000000007
20
54.129499999999993
10
271.03775000000002
20
41.129499999999986
42
-0.41421356237309503
10
270.53775000000002
20
40.629499999999993
0
LWPOLYLINE
5
155
100
AcDbEntity
8
0
100
AcDbPolyline
90
8
70
1
43
0.0
10
14.650249999999998
20
21.579500000000003
42
-0.41421356237309503
10
14.150249999999998
20
22.079500000000003
10
14.15025
20
35.079499999999996
42
-0.41421356237309503
10
14.650249999999998
20
35.579499999999989
10
27.650249999999996
20
35.579499999999989
42
-0.41421356237309503
10
28.150249999999993
20
35.079499999999996
10
28.150250000000003
20
22.079500000000003
42
-0.41421356237309503
10
27.650249999999996
20
21.579499999999996
0
LWPOLYLINE
5
156
100
AcDbEntity
8
0
100
AcDbPolyline
90
8
70
1
43
0.0
10
254.97475000000003
20
39.629499999999993
10
249.22474999999997
20
39.629500000000021
42
-0.41421356237309503
10
248.72475000000003
20
40.129499999999993
10
248.72474999999997
20
53.129499999999993
42
-0.41421356237309503
10
249.22474999999997
20
53.629499999999986
10
254.97475000000003
20
53.629499999999965
42
-0.41421356237309503
10
255.47474999999997
20
53.129499999999993
10
255.47475000000003
20
40.129499999999993
42
-0.41421356237309503
0
LWPOLYLINE
5
157
100
AcDbEntity
8
0
100
AcDbPolyline
90
8
70
1
43
0.0
10
272.60075000000001
20
40.129499999999993
10
272.60075000000006
20
53.129499999999993
42
-0.41421356237309503
10
273.10075000000006
20
53.629499999999986
10
278.85075000000001
20
53.629500000000036
42
-0.41421356237309503
10
279.35075000000006
20
53.129499999999993
10
279.35075000000001
20
40.129499999999993
42
-0.41421356237309503
10
278.85075000000001
20
39.629499999999993
10
273.10075000000006
20
39.62949999999995
42
-0.41421356237309503
0
LWPOLYLINE
5
158
100
AcDbEntity
8
0
100
AcDbPolyline
90
8
70
1
43
0.0
10
12.587249999999999
20
21.079499999999989
10
12.587249999999999
20
34.079499999999996
42
0.41421356237309503
10
12.087249999999997
20
34.579499999999996
10
6.3372499999999974
20
34.579499999999996
42
0.41421356237309503
10
5.8372499999999983
20
34.079499999999996
10
5.8372499999999983
20
21.079499999999989
42
0.41421356237309503
10
6.3372499999999974
20
20.579499999999982
10
12.087249999999997
20
20.579499999999982
42
0.41421356237309503
0
LWPOLYLINE
5
159
100
AcDbEntity
8
0
100
AcDbPolyline
90
8
70
1
43
0.0
10
102.2565
20
22.079500000000003
10
102.25650000000002
20
35.079499999999996
42
-0.41421356237309503
10
102.7565
20
35.579499999999989
10
115.75649999999999
20
35.579499999999996
42
-0.41421356237309503
10
116.2565
20
35.079499999999996
10
116.2565
20
22.079500000000003
42
-0.41421356237309503
10
115.75649999999999
20
21.579499999999996
10
102.7565
20
21.579499999999996
42
-0.41421356237309503
0
LWPOLYLINE
5
160
100
AcDbEntity
8
0
100
AcDbPolyline
90
8
70
1
43
0.0
10
140.35649999999998
20
22.079500000000003
10
140.35650000000001
20
35.079499999999996
42
-0.41421356237309503
10
140.85649999999998
20
35.579499999999989
10
153.85650000000001
20
35.579499999999982
42
-0.41421356237309503
10
154.35649999999998
20
35.079499999999996
10
154.35650000000001
20
22.079500000000003
42
-0.41421356237309503
10
153.85650000000001
20
21.579499999999996
10
140.85649999999998
20
21.579499999999996
42
-0.41421356237309503
0
LWPOLYLINE
5
161
100
AcDbEntity
8
0
100
AcDbPolyline
90
8
70
1
43
0.0
10
97.206500000000005
20
22.079500000000003
10
97.206500000000005
20
35.079499999999996
42
0.41421356237309503
10
96.706500000000005
20
35.579499999999989
10
83.706499999999991
20
35.579499999999989
42
0.41421356237309503
10
83.206500000000005
20
35.079499999999996
10
83.206500000000005
20
22.079500000000003
42
0.41421356237309503
10
83.706499999999991
20
21.579499999999996
10
96.706500000000005
20
21.579499999999996
42
0.41421356237309503
0
LWPOLYLINE
5
162
100
AcDbEntity
8
0
100
AcDbPolyline
90
8
70
1
43
0.0
10
135.30650000000003
20
22.079500000000003
42
-0.41421356237309503
10
134.8065
20
21.579499999999996
10
121.80650000000001
20
21.579499999999996
42
-0.41421356237309503
10
121.30650000000001
20
22.079500000000003
10
121.30650000000003
20
35.079499999999996
42
-0.41421356237309503
10
121.80650000000001
20
35.579499999999989
10
134.8065
20
35.579499999999996
42
-0.41421356237309503
10
135.30650000000003
20
35.079499999999996
0
LWPOLYLINE
5
163
100
AcDbEntity
8
0
100
AcDbPolyline
90
8
70
1
43
0.0
10
58.606500000000004
20
35.579499999999989
10
45.606499999999997
20
35.579499999999989
42
0.41421356237309503
10
45.106499999999997
20
35.079499999999996
10
45.106499999999997
20
22.079500000000003
42
0.41421356237309503
10
45.606499999999997
20
21.579499999999996
10
58.606500000000004
20
21.579499999999996
42
0.41421356237309503
10
59.106500000000004
20
22.079500000000003
10
59.106500000000004
20
35.079499999999996
42
0.41421356237309503
0
LWPOLYLINE
5
164
100
AcDbEntity
8
0
100
AcDbPolyline
90
8
70
1
43
0.0
10
64.156500000000008
20
22.079500000000003
10
64.156500000000008
20
35.079499999999996
42
-0.41421356237309503
10
64.656499999999994
20
35.579499999999989
10
77.656499999999994
20
35.579499999999989
42
-0.41421356237309503
10
78.156499999999994
20
35.079499999999996
10
78.156500000000008
20
22.079500000000003
42
-0.41421356237309503
10
77.656499999999994
20
21.579499999999996
10
64.656499999999994
20
21.579500000000003
42
-0.41421356237309503
0
LWPOLYLINE
5
165
100
AcDbEntity
8
0
100
AcDbPolyline
90
8
70
1
43
0.0
10
211.50649999999999
20
22.079500000000003
10
211.50649999999999
20
35.079499999999996
42
0.41421356237309503
10
211.00650000000002
20
35.579499999999989
10
198.00649999999996
20
35.579499999999989
42
0.41421356237309503
10
197.50650000000002
20
35.079499999999996
10
197.50650000000002
20
22.079500000000003
42
0.41421356237309503
10
198.00649999999996
20
21.579499999999996
10
211.00650000000002
20
21.579499999999996
42
0.41421356237309503
0
LWPOLYLINE
5
166
100
AcDbEntity
8
0
100
AcDbPolyline
90
8
70
1
43
0.0
10
230.05650000000003
20
21.579499999999996
10
217.05649999999997
20
21.579500000000031
42
-0.41421356237309503
10
216.55650000000003
20
22.079500000000003
10
216.55649999999997
20
35.079499999999996
42
-0.41421356237309503
10
217.05649999999997
20
35.579499999999989
10
230.05650000000003
20
35.579499999999967
42
-0.41421356237309503
10
230.5565
20
35.079499999999996
10
230.55650000000003
20
22.079500000000003
42
-0.41421356237309503
0
LWPOLYLINE
5
167
100
AcDbEntity
8
0
100
AcDbPolyline
90
8
70
1
43
0.0
10
172.90649999999999
20
21.579499999999996
10
159.90649999999999
20
21.579499999999996
42
-0.41421356237309503
10
159.40649999999999
20
22.079500000000003
10
159.40650000000002
20
35.079499999999996
42
-0.41421356237309503
10
159.90649999999999
20
35.579499999999989
10
172.90649999999999
20
35.579500000000039
42
-0.41421356237309503
10
173.40650000000005
20
35.079499999999996
10
173.40649999999999
20
22.079500000000003
42
-0.41421356237309503
0
LWPOLYLINE
5
168
100
AcDbEntity
8
0
100
AcDbPolyline
90
8
70
1
43
0.0
10
178.95650000000003
20
21.57949999999996
42
-0.41421356237309503
10
178.45650000000001
20
22.079500000000003
10
178.45650000000003
20
35.079499999999996
42
-0.41421356237309503
10
178.95650000000003
20
35.579499999999989
10
191.95650000000001
20
35.579500000000039
42
-0.41421356237309503
10
192.45650000000006
20
35.079499999999996
10
192.45650000000001
20
22.079500000000003
42
-0.41421356237309503
10
191.95650000000001
20
21.579499999999996
0
LWPOLYLINE
5
169
100
AcDbEntity
8
0
100
AcDbPolyline
90
8
70
1
43
0.0
10
256.75024999999999
20
22.079500000000003
10
256.75024999999999
20
35.079499999999996
42
0.41421356237309503
10
256.25024999999999
20
35.579499999999989
10
243.25025000000005
20
35.579499999999989
42
0.41421356237309503
10
242.75024999999999
20
35.079499999999996
10
242.75024999999999
20
22.079500000000003
42
0.41421356237309503
10
243.25025000000005
20
21.579499999999996
10
256.25024999999999
20
21.579499999999996
42
0.41421356237309503
0
CIRCLE
5
170
100
AcDbEntity
8
0
100
AcDbCircle
10
190.65624202652799
20
9.6829226752237041
30
0
40
2.500000000000004
210
0
220
0
230
1
0
ENDSEC
0
SECTION
2
OBJECTS
0
DICTIONARY
5
C
100
AcDbDictionary
3
ACAD_GROUP
350
D
3
ACAD_MLINESTYLE
350
17
0
DICTIONARY
5
D
100
AcDbDictionary
0
DICTIONARY
5
1A
330
C
100
AcDbDictionary
0
DICTIONARY
5
17
100
AcDbDictionary
0
ENDSEC
0
EOF
